<svg xmlns="http://www.w3.org/2000/svg" width="1000" height="470" viewBox="0 0 1000 470" role="img" aria-labelledby="title desc">
<title id="title">Oscar Ricaurte | WENDOSKI07</title><desc id="desc">Terminal animada de Oscar Ricaurte. Desarrollo, proyectos y código. Una señal recorre un diagrama de nodos y el cursor parpadea.</desc>
<defs>
<radialGradient id="glow"><stop stop-color="#126d88" stop-opacity=".28"/><stop offset="1" stop-color="#0b111b" stop-opacity="0"/></radialGradient>
<linearGradient id="edge"><stop stop-color="#46d9d0"/><stop offset=".55" stop-color="#4264a9"/><stop offset="1" stop-color="#a786f7"/></linearGradient>
<pattern id="grid" width="32" height="32" patternUnits="userSpaceOnUse"><path d="M32 0H0V32" fill="none" stroke="#8bb8d0" stroke-opacity=".055"/></pattern>
<clipPath id="typing"><rect x="59" y="305" width="570" height="27" class="typing"/></clipPath>
<style>
text{font-family:Consolas,'Liberation Mono',monospace}.muted{fill:#879bb2}.accent{fill:#5ce0d3}
.cursor{animation:blink 1.1s steps(1,end) infinite}.typing{animation:write 10s steps(34,end) infinite}.signal{animation:flow 5s linear infinite}.halo{animation:pulse 3s ease-in-out infinite}
@keyframes blink{0%,49%{opacity:1}50%,100%{opacity:0}}@keyframes write{0%,8%{width:0}40%,90%{width:570px}100%{width:0}}@keyframes flow{to{stroke-dashoffset:-240}}@keyframes pulse{0%,100%{opacity:.3}50%{opacity:.85}}
@media(prefers-reduced-motion:reduce){.cursor,.typing,.signal,.halo{animation:none}}
</style>
</defs>
<rect x="1" y="1" width="998" height="468" rx="22" fill="#0b111b" stroke="#294057"/>
<rect x="2" y="2" width="996" height="466" rx="22" fill="url(#grid)"/>
<ellipse cx="800" cy="120" rx="330" ry="240" fill="url(#glow)"/>
<path d="M24 1H976" stroke="url(#edge)" stroke-width="2"/>
<circle cx="30" cy="28" r="5" fill="#f07d83"/><circle cx="48" cy="28" r="5" fill="#e9be70"/><circle cx="66" cy="28" r="5" fill="#5ed4b0"/>
<text x="91" y="33" class="muted" font-size="12">wendoski07 / profile</text><text x="947" y="33" text-anchor="end" class="muted" font-size="11">~/workspace</text>
<path d="M1 53H999" stroke="#243447"/>
<text x="46" y="97" class="accent" font-size="12" letter-spacing="3">CODE / LEARN / BUILD</text>
<text x="43" y="155" fill="#eef5ff" font-size="48" font-weight="700" letter-spacing="-2">Oscar Ricaurte</text>
<text x="46" y="187" class="muted" font-size="17">@WENDOSKI07</text>
<rect x="46" y="211" width="110" height="27" rx="13" fill="#112b32" stroke="#235155"/><text x="101" y="229" text-anchor="middle" class="accent" font-size="11">DESARROLLO</text>
<rect x="168" y="211" width="110" height="27" rx="13" fill="#172137" stroke="#2b3c5b"/><text x="223" y="229" text-anchor="middle" fill="#a7bef1" font-size="11">PROYECTOS</text>
<rect x="290" y="211" width="110" height="27" rx="13" fill="#241c35" stroke="#49365f"/><text x="345" y="229" text-anchor="middle" fill="#c1a4f4" font-size="11">OPEN SOURCE</text>
<g fill="none" stroke="#305064"><path d="M734 118H856V206H734Z"/><path d="M734 162H856M795 118V206"/></g>
<path d="M734 118H856V206H734Z" fill="none" stroke="#5ce0d3" stroke-width="2" stroke-dasharray="16 224" class="signal"/>
<circle cx="795" cy="162" r="48" fill="none" stroke="#5ce0d3" stroke-opacity=".2" class="halo"/>
<rect x="768" y="135" width="54" height="54" rx="13" fill="#102831" stroke="#5ce0d3"/><text x="795" y="170" text-anchor="middle" class="accent" font-size="24">&lt;/&gt;</text>
<g fill="#0b111b" stroke="#638aa9"><circle cx="734" cy="118" r="6"/><circle cx="856" cy="118" r="6"/><circle cx="734" cy="206" r="6"/><circle cx="856" cy="206" r="6"/></g>
<text x="795" y="238" text-anchor="middle" class="muted" font-size="10" letter-spacing="2">IDEA → CODE → BUILD</text>
<rect x="38" y="266" width="924" height="156" rx="12" fill="#080e17" stroke="#25364b"/>
<g font-size="17"><text x="59" y="292" class="muted" font-size="11">oscar@github:~</text>
<text x="59" y="325" fill="#dae8f8" clip-path="url(#typing)"><tspan fill="#5ce0d3">$</tspan> cat welcome.txt</text>
<text x="59" y="358" fill="#b7c9db">Cada proyecto, una nueva forma de aprender.</text>
<text x="59" y="392" class="accent">$ <tspan fill="#eef5ff" class="cursor">▌</tspan></text></g>
<text x="46" y="449" class="muted" font-size="10" letter-spacing="1.5">GITHUB PROFILE / PERSONAL WORKSPACE</text><text x="948" y="449" text-anchor="end" fill="#5ce0d3" font-size="10">W07</text>
</svg>
